<!-- assets/favicon.svg -->
<svg xmlns="http://www.w3.org/2000/svg" viewBox="0 0 512 512">
  <path fill="#374151" d="M332.8 144.01a80.02 80.02 0 1 0-153.6 0 80.02 80.02 0 1 0 153.6 0zm-102.4 0a25.6 25.6 0 1 1 51.2 0 25.6 25.6 0 1 1-51.2 0zM179.2 144.01a25.6 25.6 0 1 1 51.2 0 25.6 25.6 0 1 1-51.2 0zM499.2 313.61c-19.2-32-51.2-51.2-89.6-51.2h-19.2l-25.6-51.2-83.2-19.2-44.8 44.8 32 64h-121.6l32-64-44.8-44.8-83.2 19.2L64 262.41H44.8c-38.4 0-70.4 19.2-89.6 51.2-6.4 12.8-6.4 25.6 0 38.4 19.2 32 51.2 51.2 89.6 51.2h12.8l-19.2 38.4-6.4 32c0 19.2 12.8 32 32 32h32c12.8 0 25.6-6.4 32-19.2l6.4-12.8 19.2-38.4h172.8l19.2 38.4 6.4 12.8c6.4 12.8 19.2 19.2 32 19.2h32c19.2 0 32-12.8 32-32l-6.4-32-19.2-38.4h12.8c38.4 0 70.4-19.2 89.6-51.2 6.4-12.8 6.4-25.6 0-38.4z"/>
</svg>